<svg width="22" height="22" viewBox="0 0 22 22" fill="none" xmlns="http://www.w3.org/2000/svg">
<path d="M16.0637 11.1216C16.0555 9.71724 16.6918 8.65886 17.9767 7.87845C17.258 6.84889 16.1708 6.28264 14.7377 6.1735C13.3807 6.06643 11.8961 6.9642 11.3525 6.9642C10.778 6.9642 9.46428 6.21057 8.4306 6.21057C6.29736 6.24351 4.03027 7.9114 4.03027 11.3048C4.03027 12.3076 4.21353 13.3433 4.58006 14.41C5.07013 15.8143 6.83685 19.2551 8.67976 19.1995C9.64342 19.1768 10.325 18.5158 11.579 18.5158C12.7959 18.5158 13.426 19.1995 14.5009 19.1995C16.3603 19.1727 17.9581 16.0449 18.4235 14.6365C15.9299 13.4607 16.0637 11.1936 16.0637 11.1216V11.1216ZM13.8996 4.84126C14.9436 3.60167 14.8489 2.47327 14.818 2.06763C13.8955 2.12116 12.8289 2.69566 12.2214 3.40193C11.5522 4.15969 11.1589 5.09659 11.2434 6.15291C12.24 6.2291 13.1501 5.71638 13.8996 4.84126V4.84126Z" fill="black"/>
</svg>
