<svg width="25" height="24" viewBox="0 0 25 24" fill="none" xmlns="http://www.w3.org/2000/svg">
<path fill-rule="evenodd" clip-rule="evenodd" d="M5.00561 4.27404C6.83409 2.44556 9.31404 1.41833 11.8999 1.41833C14.4858 1.41833 16.9657 2.44556 18.7942 4.27404C20.6227 6.10252 21.6499 8.58247 21.6499 11.1683C21.6499 13.503 20.8125 15.7514 19.3041 17.5119L23.4302 21.638C23.7231 21.9309 23.7231 22.4058 23.4302 22.6987C23.1373 22.9916 22.6625 22.9916 22.3696 22.6987L18.2435 18.5725C16.483 20.081 14.2346 20.9183 11.8999 20.9183C9.31404 20.9183 6.83409 19.8911 5.00561 18.0626C3.17713 16.2341 2.1499 13.7542 2.1499 11.1683C2.1499 8.58247 3.17713 6.10252 5.00561 4.27404ZM11.8999 2.91833C9.71187 2.91833 7.61345 3.78753 6.06627 5.3347C4.5191 6.88188 3.6499 8.9803 3.6499 11.1683C3.6499 13.3564 4.5191 15.4548 6.06627 17.002C7.61345 18.5491 9.71187 19.4183 11.8999 19.4183C14.0879 19.4183 16.1864 18.5491 17.7335 17.002C19.2807 15.4548 20.1499 13.3564 20.1499 11.1683C20.1499 8.9803 19.2807 6.88188 17.7335 5.3347C16.1864 3.78753 14.0879 2.91833 11.8999 2.91833Z" fill="#111111"/>
<path d="M18.3999 17.5034L22.8999 22.0034L18.3999 17.5034ZM20.8999 11.0034C20.8999 8.61647 19.9517 6.32728 18.2639 4.63946C16.576 2.95163 14.2869 2.00342 11.8999 2.00342C9.51295 2.00342 7.22377 2.95163 5.53594 4.63946C3.84811 6.32728 2.8999 8.61647 2.8999 11.0034C2.8999 13.3904 3.84811 15.6796 5.53594 17.3674C7.22377 19.0552 9.51295 20.0034 11.8999 20.0034C14.2869 20.0034 16.576 19.0552 18.2639 17.3674C19.9517 15.6796 20.8999 13.3904 20.8999 11.0034Z" fill="#111111"/>
<path d="M18.3999 17.5034L22.8999 22.0034M20.8999 11.0034C20.8999 8.61647 19.9517 6.32728 18.2639 4.63946C16.576 2.95163 14.2869 2.00342 11.8999 2.00342C9.51295 2.00342 7.22377 2.95163 5.53594 4.63946C3.84811 6.32728 2.8999 8.61647 2.8999 11.0034C2.8999 13.3904 3.84811 15.6796 5.53594 17.3674C7.22377 19.0552 9.51295 20.0034 11.8999 20.0034C14.2869 20.0034 16.576 19.0552 18.2639 17.3674C19.9517 15.6796 20.8999 13.3904 20.8999 11.0034Z" stroke="#111111" stroke-width="1.5" stroke-linecap="round" stroke-linejoin="round"/>
</svg>
