<svg width="25" height="24" viewBox="0 0 25 24" fill="none" xmlns="http://www.w3.org/2000/svg">
<path fill-rule="evenodd" clip-rule="evenodd" d="M5.00586 4.27404C6.83433 2.44556 9.31429 1.41833 11.9001 1.41833C14.486 1.41833 16.966 2.44556 18.7944 4.27404C20.6229 6.10252 21.6501 8.58247 21.6501 11.1683C21.6501 13.503 20.8128 15.7514 19.3044 17.5119L23.4305 21.638C23.7234 21.9309 23.7234 22.4058 23.4305 22.6987C23.1376 22.9916 22.6627 22.9916 22.3698 22.6987L18.2437 18.5725C16.4832 20.081 14.2348 20.9183 11.9001 20.9183C9.31429 20.9183 6.83433 19.8911 5.00586 18.0626C3.17738 16.2341 2.15015 13.7542 2.15015 11.1683C2.15015 8.58247 3.17738 6.10252 5.00586 4.27404ZM11.9001 2.91833C9.71211 2.91833 7.61369 3.78753 6.06652 5.3347C4.51934 6.88188 3.65015 8.9803 3.65015 11.1683C3.65015 13.3564 4.51934 15.4548 6.06652 17.002C7.61369 18.5491 9.71211 19.4183 11.9001 19.4183C14.0882 19.4183 16.1866 18.5491 17.7338 17.002C19.281 15.4548 20.1501 13.3564 20.1501 11.1683C20.1501 8.9803 19.281 6.88188 17.7338 5.3347C16.1866 3.78753 14.0882 2.91833 11.9001 2.91833Z" fill="#111111"/>
</svg>
