<svg width="25" height="24" viewBox="0 0 25 24" fill="none" xmlns="http://www.w3.org/2000/svg">
<path fill-rule="evenodd" clip-rule="evenodd" d="M7.63742 3.66719C6.42707 3.82989 5.70424 4.13842 5.17133 4.67133C4.63846 5.2042 4.3299 5.92725 4.16719 7.13778C4.00159 8.36983 4 9.98981 4 12.25C4 14.5107 4.00159 16.1307 4.16719 17.3626C4.32989 18.5729 4.63842 19.2958 5.17133 19.8287C5.7042 20.3615 6.42725 20.6701 7.63778 20.8328C8.86983 20.9984 10.4898 21 12.75 21C15.0107 21 16.6307 20.9984 17.8626 20.8328C19.0729 20.6701 19.7958 20.3616 20.3287 19.8287C20.8615 19.2958 21.1701 18.5728 21.3328 17.3622C21.4984 16.1302 21.5 14.5102 21.5 12.25C21.5 9.9893 21.4984 8.36934 21.3328 7.13742C21.1701 5.92707 20.8616 5.20424 20.3287 4.67133C19.7958 4.13846 19.0728 3.8299 17.8622 3.66719C16.6302 3.50159 15.0102 3.5 12.75 3.5C10.4893 3.5 8.86934 3.50159 7.63742 3.66719ZM12.6928 2H12.8071C14.9977 1.99999 16.7185 1.99998 18.062 2.18056C19.4387 2.3656 20.5312 2.75254 21.3893 3.61067C22.2474 4.46876 22.6344 5.56093 22.8194 6.93758C23 8.281 23 10.0018 23 12.1928V12.3071C23 14.4977 23 16.2185 22.8194 17.562C22.6344 18.9387 22.2475 20.0312 21.3893 20.8893C20.5312 21.7474 19.4391 22.1344 18.0624 22.3194C16.719 22.5 14.9982 22.5 12.8072 22.5H12.6929C10.5023 22.5 8.78151 22.5 7.43797 22.3194C6.06126 22.1344 4.9688 21.7475 4.11067 20.8893C3.25258 20.0312 2.86561 18.9391 2.68056 17.5624C2.49998 16.219 2.49999 14.4982 2.5 12.3072V12.1929C2.49999 10.0023 2.49998 8.2815 2.68056 6.93797C2.8656 5.56126 3.25254 4.4688 4.11067 3.61067C4.96876 2.75258 6.06093 2.36561 7.43758 2.18056C8.781 1.99998 10.5018 1.99999 12.6928 2ZM12.75 7.5C13.1642 7.5 13.5 7.83579 13.5 8.25V11.5H16.75C17.1642 11.5 17.5 11.8358 17.5 12.25C17.5 12.6642 17.1642 13 16.75 13H13.5V16.25C13.5 16.6642 13.1642 17 12.75 17C12.3358 17 12 16.6642 12 16.25V13H8.75C8.33579 13 8 12.6642 8 12.25C8 11.8358 8.33579 11.5 8.75 11.5H12V8.25C12 7.83579 12.3358 7.5 12.75 7.5Z" fill="#111111"/>
</svg>
