<svg width="15" height="16" viewBox="0 0 15 16" fill="none" xmlns="http://www.w3.org/2000/svg">
<path d="M11.85 1V2.4M3.45 1V2.4M7.6472 8.7H7.6528M7.6472 11.5H7.6528M10.4437 8.7H10.45M4.85 8.7H4.8563M4.85 11.5H4.8563M1.7 5.2H13.6M1.35 5.2H13.95M1 8.1701C1 5.1202 1 3.5949 1.8764 2.6471C2.7528 1.7 4.164 1.7 6.985 1.7H8.315C11.136 1.7 12.5472 1.7 13.4236 2.6478C14.3 3.5949 14.3 5.1202 14.3 8.1708V8.5299C14.3 11.5798 14.3 13.1051 13.4236 14.0529C12.5472 15 11.136 15 8.315 15H6.985C4.164 15 2.7528 15 1.8764 14.0522C1 13.1051 1 11.5798 1 8.5292V8.1701Z" stroke="#787878" stroke-width="1.05" stroke-linecap="round" stroke-linejoin="round"/>
</svg>
