<svg width="16" height="17" viewBox="0 0 16 17" fill="none" xmlns="http://www.w3.org/2000/svg">
<path d="M15.1041 6.93861H14.5V6.90552H7.75V10.0944H11.9886C11.3703 11.9508 9.70862 13.2833 7.75 13.2833C5.26487 13.2833 3.25 11.1416 3.25 8.49998C3.25 5.85837 5.26487 3.71662 7.75 3.71662C8.89713 3.71662 9.94075 4.17662 10.7354 4.928L12.8567 2.67305C11.5172 1.34606 9.7255 0.52771 7.75 0.52771C3.60813 0.52771 0.25 4.09729 0.25 8.49998C0.25 12.9027 3.60813 16.4722 7.75 16.4722C11.8919 16.4722 15.25 12.9027 15.25 8.49998C15.25 7.96544 15.1982 7.44365 15.1041 6.93861Z" fill="#FFC107"/>
<path d="M7.75003 16.4722C9.68728 16.4722 11.4475 15.6841 12.7784 14.4026L10.4572 12.3147C9.67885 12.9438 8.72782 13.2841 7.75003 13.2833C5.79928 13.2833 4.1429 11.9611 3.5189 10.1159L1.07315 12.1189C2.3144 14.7008 4.83515 16.4722 7.75003 16.4722Z" fill="#4CAF50"/>
<path d="M15.1041 6.93866H14.5V6.90558H7.74997V10.0945H11.9886C11.6928 10.978 11.16 11.75 10.456 12.3152L10.4571 12.3144L12.7783 14.4023C12.6141 14.5609 15.25 12.4862 15.25 8.50003C15.25 7.96549 15.1982 7.44371 15.1041 6.93866Z" fill="#1976D2"/>
<path d="M1.11472 4.78929L3.57884 6.7102C4.24559 4.95551 5.86034 3.71662 7.74997 3.71662C8.89709 3.71662 9.94072 4.17662 10.7353 4.928L12.8567 2.67305C11.5172 1.34606 9.72547 0.52771 7.74997 0.52771C4.86922 0.52771 2.37097 2.2565 1.11472 4.78929Z" fill="#FF3D00"/>
</svg>
