<svg width="25" height="24" viewBox="0 0 25 24" fill="none" xmlns="http://www.w3.org/2000/svg">
<path d="M22.0918 11.567C22.0918 16.85 17.6138 21.133 12.0918 21.133C11.4405 21.1337 10.7955 21.0743 10.1568 20.955C9.6978 20.868 9.4688 20.825 9.3088 20.85C9.1488 20.874 8.9208 20.995 8.4668 21.236C7.17314 21.925 5.6846 22.1565 4.2428 21.893C4.79354 21.2122 5.16701 20.4054 5.3298 19.545C5.4298 19.015 5.1818 18.5 4.8098 18.123C3.1258 16.411 2.0918 14.105 2.0918 11.567C2.0918 6.284 6.5698 2 12.0918 2C17.6138 2 22.0918 6.284 22.0918 11.567Z" stroke="#111111" stroke-width="1.5" stroke-linecap="round" stroke-linejoin="round"/>
<path d="M12.0878 12H12.0958M16.0828 12H16.0918M8.0918 12H8.1008" stroke="#111111" stroke-width="2" stroke-linecap="round" stroke-linejoin="round"/>
</svg>
