<svg width="25" height="24" viewBox="0 0 25 24" fill="none" xmlns="http://www.w3.org/2000/svg">
<path d="M22.092 11.567C22.092 16.85 17.614 21.133 12.092 21.133C11.4407 21.1337 10.7957 21.0743 10.157 20.955C9.69804 20.868 9.46904 20.825 9.30904 20.85C9.14904 20.874 8.92104 20.995 8.46704 21.236C7.17338 21.925 5.68484 22.1565 4.24304 21.893C4.79379 21.2122 5.16725 20.4054 5.33004 19.545C5.43004 19.015 5.18204 18.5 4.81004 18.123C3.12604 16.411 2.09204 14.105 2.09204 11.567C2.09204 6.284 6.57004 2 12.092 2C17.614 2 22.092 6.284 22.092 11.567Z" fill="#111111" stroke="#111111" stroke-width="1.5" stroke-linecap="round" stroke-linejoin="round"/>
<path d="M12.088 12H12.096M16.083 12H16.092M8.09204 12H8.10104" stroke="white" stroke-width="2" stroke-linecap="round" stroke-linejoin="round"/>
</svg>
