<svg width="25" height="24" viewBox="0 0 25 24" fill="none" xmlns="http://www.w3.org/2000/svg">
<path d="M2.62961 14.77C2.41661 16.164 3.36761 17.131 4.53162 17.613C8.99462 19.463 15.2046 19.463 19.6676 17.613C20.8316 17.131 21.7826 16.163 21.5696 14.77C21.4396 13.913 20.7926 13.2 20.3136 12.503C19.6866 11.579 19.6246 10.572 19.6236 9.5C19.6246 5.358 16.2566 2 12.0996 2C7.94261 2 4.57461 5.358 4.57461 9.5C4.57461 10.572 4.51261 11.58 3.88461 12.503C3.40661 13.2 2.76061 13.913 2.62961 14.77Z" fill="black" stroke="#111111" stroke-width="1.5" stroke-linecap="round" stroke-linejoin="round"/>
<path d="M8.09961 19C8.55761 20.725 10.1756 22 12.0996 22C14.0246 22 15.6406 20.725 16.0996 19" stroke="#111111" stroke-width="1.5" stroke-linecap="round" stroke-linejoin="round"/>
</svg>
