<svg width="25" height="24" viewBox="0 0 25 24" fill="none" xmlns="http://www.w3.org/2000/svg">
<path d="M6.98568 15.8537C5.57068 16.6957 1.86068 18.4157 4.12068 20.5687C5.22368 21.6197 6.45268 22.3717 7.99768 22.3717H16.8157C18.3617 22.3717 19.5907 21.6197 20.6937 20.5687C22.9537 18.4157 19.2437 16.6957 17.8287 15.8537C16.1865 14.8836 14.314 14.3718 12.4067 14.3718C10.4993 14.3718 8.62789 14.8836 6.98568 15.8537ZM16.9077 6.8717C16.9077 8.06518 16.4336 9.20977 15.5897 10.0537C14.7457 10.8976 13.6012 11.3717 12.4077 11.3717C11.2142 11.3717 10.0696 10.8976 9.2257 10.0537C8.38178 9.20977 7.90768 8.06518 7.90768 6.8717C7.90768 5.67823 8.38178 4.53364 9.2257 3.68972C10.0696 2.84581 11.2142 2.3717 12.4077 2.3717C13.6012 2.3717 14.7457 2.84581 15.5897 3.68972C16.4336 4.53364 16.9077 5.67823 16.9077 6.8717Z" stroke="#111111" stroke-width="1.5" stroke-linecap="round" stroke-linejoin="round"/>
</svg>
