<svg width="28" height="28" viewBox="0 0 28 28" fill="none" xmlns="http://www.w3.org/2000/svg">
<path d="M18.6573 3.82993L8.49852 7.20493C1.66977 9.48868 1.66977 13.2124 8.49852 15.4849L11.5135 16.4862L12.5148 19.5012C14.7873 26.3299 18.5223 26.3299 20.7948 19.5012L24.181 9.35368C25.6885 4.79743 23.2135 2.31118 18.6573 3.82993ZM19.0173 9.88243L14.7423 14.1799C14.5735 14.3487 14.3598 14.4274 14.146 14.4274C13.9323 14.4274 13.7185 14.3487 13.5498 14.1799C13.2235 13.8537 13.2235 13.3137 13.5498 12.9874L17.8248 8.68993C18.151 8.36368 18.691 8.36368 19.0173 8.68993C19.3435 9.01618 19.3435 9.55618 19.0173 9.88243Z" fill="white"/>
</svg>
